HIERARCHY
ROOT Hips
{
	OFFSET 0.000000 0.000000 0.000000
	CHANNELS 6 Xposition Yposition Zposition Xrotation Yrotation Zrotation
	JOINT LeftUpLeg_virtual
	{
		OFFSET 0.000000 0.000000 0.000000
		CHANNELS 3 Xrotation Yrotation Zrotation
		JOINT LeftUpLeg
		{
			OFFSET 11.394100 -6.187798 -0.413800
			CHANNELS 3 Xrotation Yrotation Zrotation
			JOINT LeftLeg
			{
				OFFSET 0.430247 -32.302673 3.732800
				CHANNELS 3 Xrotation Yrotation Zrotation
				JOINT LeftFoot
				{
					OFFSET -0.430247 -48.264931 -6.423300
					CHANNELS 3 Xrotation Yrotation Zrotation
					JOINT LeftToeBase
					{
						OFFSET 4.230900 -16.068199 23.438400
						CHANNELS 3 Xrotation Yrotation Zrotation
						JOINT LeftToe_End
						{
							OFFSET 4.510700 0.695400 19.974600
							CHANNELS 3 Xrotation Yrotation Zrotation
							End Site
							{
								OFFSET 0 0 0
							}
						}
					}
				}
			}
		}
	}
	JOINT RightUpLeg_virtual
	{
		OFFSET 0.000000 0.000000 0.000000
		CHANNELS 3 Xrotation Yrotation Zrotation
		JOINT RightUpLeg
		{
			OFFSET -11.333700 -6.187798 -0.413800
			CHANNELS 3 Xrotation Yrotation Zrotation
			JOINT RightLeg
			{
				OFFSET -0.430392 -32.302628 3.733000
				CHANNELS 3 Xrotation Yrotation Zrotation
				JOINT RightFoot
				{
					OFFSET 0.430392 -48.264973 -6.423500
					CHANNELS 3 Xrotation Yrotation Zrotation
					JOINT RightToeBase
					{
						OFFSET -4.230900 -16.068199 23.438400
						CHANNELS 3 Xrotation Yrotation Zrotation
						JOINT RightToe_End
						{
							OFFSET -4.510700 0.695400 19.974600
							CHANNELS 3 Xrotation Yrotation Zrotation
							End Site
							{
								OFFSET 0 0 0
							}
						}
					}
				}
			}
		}
	}
	JOINT Spine_virtual
	{
		OFFSET 0.000000 0.000000 0.000000
		CHANNELS 3 Xrotation Yrotation Zrotation
		JOINT Spine
		{
			OFFSET -0.002400 12.777504 0.315300
			CHANNELS 3 Xrotation Yrotation Zrotation
			JOINT Spine1
			{
				OFFSET -0.002067 5.816869 0.032633
				CHANNELS 3 Xrotation Yrotation Zrotation
				JOINT Spine1_split
				{
					OFFSET -0.002067 5.816869 0.032633
					CHANNELS 3 Xrotation Yrotation Zrotation
					JOINT Spine2
					{
						OFFSET -0.002067 5.816869 0.032633
						CHANNELS 3 Xrotation Yrotation Zrotation
						JOINT Neck_virtual
						{
							OFFSET 0.000000 0.000000 0.000000
							CHANNELS 3 Xrotation Yrotation Zrotation
							JOINT Neck
							{
								OFFSET -0.003700 21.199493 -0.826900
								CHANNELS 3 Xrotation Yrotation Zrotation
								JOINT Head
								{
									OFFSET 0.000000 20.442200 4.834800
									CHANNELS 3 Xrotation Yrotation Zrotation
									JOINT HeadTop_End
									{
										OFFSET 0.000000 34.668396 4.968400
										CHANNELS 3 Xrotation Yrotation Zrotation
										End Site
										{
											OFFSET 0 0 0
										}
									}
								}
							}
						}
						JOINT LeftShoulder_virtual
						{
							OFFSET 0.000000 0.000000 0.000000
							CHANNELS 3 Xrotation Yrotation Zrotation
							JOINT LeftShoulder
							{
								OFFSET 3.288150 8.794197 -1.372250
								CHANNELS 3 Xrotation Yrotation Zrotation
								JOINT LeftShoulder_split
								{
									OFFSET 3.288150 8.794197 -1.372250
									CHANNELS 3 Xrotation Yrotation Zrotation
									JOINT LeftArm
									{
										OFFSET 11.953299 -2.279007 -0.146200
										CHANNELS 3 Xrotation Yrotation Zrotation
										JOINT LeftForeArm
										{
											OFFSET 18.448900 0.000000 0.000000
											CHANNELS 3 Xrotation Yrotation Zrotation
											JOINT LeftHand
											{
												OFFSET 29.527798 0.000000 0.000000
												CHANNELS 3 Xrotation Yrotation Zrotation
												End Site
												{
													OFFSET 0 0 0
												}
											}
										}
									}
								}
							}
						}
						JOINT RightShoulder_virtual
						{
							OFFSET 0.000000 0.000000 0.000000
							CHANNELS 3 Xrotation Yrotation Zrotation
							JOINT RightShoulder
							{
								OFFSET -3.249400 8.794197 -1.372250
								CHANNELS 3 Xrotation Yrotation Zrotation
								JOINT RightShoulder_split
								{
									OFFSET -3.249400 8.794197 -1.372250
									CHANNELS 3 Xrotation Yrotation Zrotation
									JOINT RightArm
									{
										OFFSET -11.953299 -2.279007 -0.146200
										CHANNELS 3 Xrotation Yrotation Zrotation
										JOINT RightForeArm
										{
											OFFSET -18.448900 0.000000 0.000000
											CHANNELS 3 Xrotation Yrotation Zrotation
											JOINT RightHand
											{
												OFFSET -29.527802 0.000000 0.000000
												CHANNELS 3 Xrotation Yrotation Zrotation
												End Site
												{
													OFFSET 0 0 0
												}
											}
										}
									}
								}
							}
						}
					}
				}
			}
		}
	}
}
MOTION
Frames: 7
Frame Time: 0.03333333
2.088173 99.953110 2.686886 0.000000 0.000000 0.000000 3.789566 42.306929 -1.808560 -34.504244 4.693920 6.141048 23.173993 -7.594075 2.333324 3.567732 -15.924231 -8.187319 3.325591 -1.796521 0.603470 0.000000 0.000000 0.000000 4.666194 45.076650 -2.884022 -21.501195 16.408783 4.134141 19.135801 15.686716 -2.887483 -3.710957 -5.185095 2.909453 -2.581129 1.395259 -18.567941 0.000000 0.000000 0.000000 1.044430 47.769445 -2.228793 4.817616 -0.817095 -0.864065 0.049022 -0.804366 1.808890 0.111803 0.047563 0.018159 0.000000 0.000000 0.000000 3.848488 2.497909 2.216762 -4.273093 14.439706 -8.604591 -23.868482 -13.655962 -12.978113 0.000000 0.000000 0.000000 1.476848 1.335171 1.522732 1.437008 0.234449 1.723503 8.385126 -1.969834 0.145509 -69.827401 18.780198 -19.964337 11.911167 -64.438108 10.266928 0.000000 0.000000 0.000000 2.661160 0.816672 1.793488 -0.781118 1.556752 4.983748 -3.207216 -1.975354 2.277024 3.962461 22.334884 71.096709 6.634737 19.323237 -4.134194 0.000000 0.000000 0.000000 
1.326886 100.219032 3.332588 0.000000 0.000000 0.000000 4.842306 47.472383 -2.818043 -35.471945 4.888476 7.173896 22.657756 -10.061274 2.475992 3.017636 -16.005355 -9.316929 4.573933 -2.263073 2.753982 0.000000 0.000000 0.000000 5.568842 49.993242 -3.836930 -19.693203 15.483586 4.294496 17.659565 13.825232 -2.542976 -4.913308 -6.946634 2.933442 -1.537240 1.200062 -15.571609 0.000000 0.000000 0.000000 1.693008 52.514838 -3.009740 4.792907 -1.076500 -0.956739 -0.018189 -1.211413 1.695753 0.111806 0.088194 -0.014332 0.000000 0.000000 0.000000 3.579176 2.116479 2.183616 -3.924495 14.360485 -8.765375 -23.575218 -16.045267 -12.305367 0.000000 0.000000 0.000000 1.377256 0.923338 1.429133 1.445056 -2.663980 1.836092 7.945539 -1.912195 -0.102795 -69.251110 16.073692 -22.065321 8.979363 -62.541051 8.693430 0.000000 0.000000 0.000000 2.581361 0.514053 1.800166 -0.681321 0.963071 4.992740 -3.647262 -1.770511 2.485016 2.641290 19.722028 70.812533 6.148610 19.545484 -3.555635 0.000000 0.000000 0.000000 
0.514341 100.460556 3.609344 0.000000 0.000000 0.000000 5.609233 51.831471 -3.659831 -36.231398 5.804293 8.488560 21.790621 -11.386086 2.619791 2.968658 -14.990937 -9.926305 6.395243 -2.696966 4.844699 0.000000 0.000000 0.000000 6.262405 53.987547 -4.617801 -18.410695 14.157297 4.361241 16.755690 11.857770 -2.201904 -5.825713 -8.436882 3.427038 -0.319702 1.338129 -13.118847 0.000000 0.000000 0.000000 2.355119 56.614116 -3.790585 4.814810 -1.309290 -1.108760 -0.041002 -1.514094 1.598456 0.124631 0.112544 -0.035013 0.000000 0.000000 0.000000 3.351140 1.814883 2.156307 -3.845188 14.366719 -8.943118 -23.085756 -18.341635 -11.598461 0.000000 0.000000 0.000000 1.309125 0.596771 1.348656 1.449010 -5.341885 2.005844 7.443214 -1.924944 -0.328900 -68.830453 13.720664 -23.781134 6.587885 -60.990229 7.673113 0.000000 0.000000 0.000000 2.531638 0.291869 1.800755 -0.603342 0.653502 5.194586 -4.118254 -1.639638 2.554625 1.102231 16.176304 70.116222 5.607826 19.559270 -2.882146 0.000000 0.000000 0.000000 
-0.264303 100.635544 3.531601 0.000000 0.000000 0.000000 6.041784 55.333241 -4.245720 -36.514673 7.288113 9.985592 20.523125 -11.176476 2.718325 3.433883 -12.805379 -9.660443 7.907181 -3.109394 6.557143 0.000000 0.000000 0.000000 6.611057 57.034269 -5.145722 -17.765119 12.798178 4.387149 16.538070 9.947055 -1.935631 -6.344560 -9.574253 4.328532 0.698306 1.801789 -11.352083 0.000000 0.000000 0.000000 2.965615 60.015465 -4.520650 4.871571 -1.530496 -1.326378 -0.023153 -1.723674 1.549294 0.129288 0.115940 -0.037755 0.000000 0.000000 0.000000 3.171249 1.594129 2.158047 -4.016091 14.427894 -9.148398 -22.351336 -20.382295 -10.901913 0.000000 0.000000 0.000000 1.287940 0.348543 1.317701 1.454261 -7.699828 2.204305 6.877050 -2.003040 -0.637610 -68.532718 11.766871 -25.193001 4.756960 -59.840011 7.127673 0.000000 0.000000 0.000000 2.526977 0.142033 1.814024 -0.538913 0.617165 5.533845 -4.548053 -1.594737 2.524416 -0.724103 11.958492 69.029061 4.991593 19.353162 -2.135319 0.000000 0.000000 0.000000 
-0.999463 100.727661 3.134502 0.000000 0.000000 0.000000 6.061649 58.086927 -4.521517 -36.049633 9.197410 11.457682 19.213460 -9.301562 2.803211 3.720597 -9.453789 -8.451580 8.965729 -3.482021 7.473793 0.000000 0.000000 0.000000 6.589534 59.344372 -5.373939 -17.618791 11.687687 4.389238 16.769477 8.158326 -1.737268 -6.506425 -10.385596 5.490740 1.238953 2.461041 -10.212249 0.000000 0.000000 0.000000 3.415189 62.788672 -5.107898 4.948804 -1.762445 -1.597202 0.031151 -1.871012 1.572400 0.141138 0.111892 -0.034890 0.000000 0.000000 0.000000 3.052651 1.435568 2.208909 -4.384442 14.515315 -9.345209 -21.436124 -22.071866 -10.317161 0.000000 0.000000 0.000000 1.316468 0.162495 1.361951 1.457759 -9.686161 2.358333 6.442083 -2.198687 -0.916816 -68.320053 10.139887 -26.475111 3.515212 -59.042778 6.959113 0.000000 0.000000 0.000000 2.562524 0.030321 1.860481 -0.492295 0.788024 5.919756 -4.925705 -1.618976 2.445827 -2.844181 7.375931 67.615731 4.290037 18.987806 -1.331031 0.000000 0.000000 0.000000 
-1.579253 100.731491 2.469044 0.000000 0.000000 0.000000 5.712322 60.235418 -4.510060 -35.075856 11.312261 12.852504 18.289479 -6.147221 2.891000 3.393228 -5.399515 -6.778861 9.844251 -3.777212 7.359108 0.000000 0.000000 0.000000 6.284800 61.104402 -5.366682 -17.731489 10.965898 4.386844 17.169231 6.500924 -1.608945 -6.562720 -10.852986 6.641690 1.554688 3.202194 -9.633782 0.000000 0.000000 0.000000 3.693526 65.042730 -5.509075 5.037667 -2.020419 -1.888842 0.126797 -1.979867 1.680806 0.150603 0.112114 -0.040876 0.000000 0.000000 0.000000 2.993071 1.318112 2.324321 -4.892266 14.584308 -9.499708 -20.419274 -23.370054 -9.951221 0.000000 0.000000 0.000000 1.404189 0.017098 1.493637 1.450569 -11.320542 2.389220 6.185645 -2.471201 -1.184667 -68.117804 8.713812 -27.759356 2.818596 -58.503179 7.046745 0.000000 0.000000 0.000000 2.637620 -0.062402 1.963696 -0.454387 1.087460 6.297374 -5.172363 -1.691479 2.306692 -5.110987 2.697500 65.993404 3.508485 18.584890 -0.503039 0.000000 0.000000 0.000000 
-1.989477 100.680672 1.597469 0.000000 0.000000 0.000000 5.172898 62.020986 -4.352188 -33.836638 13.399796 14.125276 18.085762 -2.507751 2.890013 2.529633 -1.491075 -5.350519 10.485145 -3.961965 6.663813 0.000000 0.000000 0.000000 5.790929 62.534220 -5.190091 -17.878522 10.584084 4.304189 17.535160 4.964438 -1.533670 -6.628283 -10.975157 7.506037 2.073823 3.963650 -9.526988 0.000000 0.000000 0.000000 3.804409 66.877224 -5.706223 5.100584 -2.300910 -2.166794 0.258758 -2.057054 1.861971 0.156944 0.113887 -0.044646 0.000000 0.000000 0.000000 2.995178 1.227676 2.497770 -5.467867 14.575420 -9.537077 -19.403357 -24.271608 -9.918412 0.000000 0.000000 0.000000 1.538696 -0.102019 1.695786 1.418010 -12.655548 2.222445 6.139029 -2.797926 -1.266378 -67.904416 7.489310 -29.073533 2.555834 -58.076586 7.246626 0.000000 0.000000 0.000000 2.746940 -0.151167 2.123949 -0.421904 1.450801 6.598631 -5.345803 -1.778061 2.189482 -7.285279 -1.747863 64.309878 2.677330 18.312606 0.306844 0.000000 0.000000 0.000000 
